# xmcd
#
# Track frame offsets:
#	150
#	12933
#	26548
#	39064
#	54165
#	67466
#	80783
#	93244
#	104919
#	122307
#	136962
#	151348
#	165805
#
# Disc length: 2377 seconds
# Revision: 1
# Processed by: cddbd v1.5.2PL0 Copyright (c) Steve Scherf et al.
# Submitted via: dBpowerAMP V12.0
#
DISCID=9b09470d
DTITLE=Kelsea Ballerini - kelsea
DYEAR=2020
DGENRE=Country
TTITLE0=overshare
TTITLE1=club
TTITLE2=homecoming queen?
TTITLE3=the other girl
TTITLE4=love me like a girl
TTITLE5=love and hate
TTITLE6=bragger
TTITLE7=hole in the bottle
TTITLE8=half of my hometown
TTITLE9=the way i used to
TTITLE10=needy
TTITLE11=a country song
TTITLE12=la
EXTD=
EXTT0=
EXTT1=
EXTT2=
EXTT3=
EXTT4=
EXTT5=
EXTT6=
EXTT7=
EXTT8=
EXTT9=
EXTT10=
EXTT11=
EXTT12=
PLAYORDER=
